<?xml version="1.0"?><svg id="Layer_2" xmlns="http://www.w3.org/2000/svg" viewBox="0 0 1022.87 111.81"><defs></defs><g id="Artwork"><path class="cls-1" d="M34.49.02H2.21C.25.02-.74,2.39.65,3.78l29.07,29.07c2.16,2.16,2.16,5.67,0,7.83L.65,69.75c-1.39,1.39-.41,3.76,1.56,3.76h32.28c1.18,0,2.3-.47,3.13-1.3l31.53-31.53c2.16-2.16,2.16-5.67,0-7.83L37.62,1.32c-.83-.83-1.96-1.3-3.13-1.3h0Z"></path><path class="cls-1" d="M130.59,106.5l-31.47-31.47c-.84-.84-.86-2.21-.04-3.08l29.65-31.28c2.07-2.18,2.02-5.61-.1-7.73L96.99,1.3c-.83-.83-1.96-1.3-3.13-1.3h-32.28c-1.96,0-2.95,2.37-1.56,3.76l29.07,29.07c2.16,2.16,2.16,5.67,0,7.83l-30.49,30.49c-1.29,1.29-1.29,3.38,0,4.68l33.11,33.11c.83.83,1.96,1.3,3.13,1.3h34.19c1.96,0,2.95-2.37,1.56-3.76v.02Z"></path><path class="cls-2" d="M397.51,36.08c-4.07-2.56-9.33-3.85-15.77-3.85-4.93,0-9.1.77-12.52,2.31-3.42,1.54-6.21,3.54-8.37,6s-3.85,4.98-5.05,7.54h-.52c-.17-.47-.35-.93-.54-1.39-1.91-4.51-4.85-8.05-8.83-10.62-3.97-2.56-9.13-3.85-15.47-3.85-4.73,0-8.8.77-12.22,2.31s-6.21,3.49-8.37,5.85-3.8,4.92-4.9,7.7h-.75v-12.93c0-.76-.62-1.39-1.39-1.39h-12.17c-.77,0-1.39.62-1.39,1.39v73.72c0,.76.62,1.39,1.39,1.39h13.53c.77,0,1.39-.62,1.39-1.39v-43.25c0-6.98,1.48-11.88,4.45-14.7,2.97-2.82,7.52-4.23,13.66-4.23,6.74,0,11.39,1.49,13.96,4.46,2.56,2.98,3.85,7.9,3.85,14.78v42.94c0,.76.62,1.39,1.39,1.39h13.38c.77,0,1.39-.62,1.39-1.39v-43.09c0-6.98,1.48-11.9,4.45-14.78,2.97-2.87,7.52-4.31,13.66-4.31,6.84,0,11.49,1.49,13.96,4.46,2.46,2.98,3.7,7.9,3.7,14.78v42.94c0,.76.62,1.39,1.38,1.39h13.53c.77,0,1.39-.62,1.39-1.39v-46.63c0-5.85-1.01-11.03-3.02-15.54s-5.05-8.05-9.13-10.62h-.05Z"></path><path class="cls-2" d="M471.84,71.33c-3.27-1.85-7.32-3.23-12.15-4.16l-12.67-2.46c-5.33-1.13-8.88-2.28-10.64-3.46-1.76-1.18-2.64-3.21-2.64-6.08,0-3.08.98-5.39,2.94-6.93s5.91-2.31,11.85-2.31c4.53,0,7.9.51,10.11,1.54,2.21,1.03,3.72,2.44,4.53,4.23.8,1.8,1.21,3.92,1.21,6.39v.46c0,.76.62,1.39,1.39,1.39h12.92c.77,0,1.39-.62,1.39-1.39,0-5.85-1.38-10.72-4.15-14.62s-6.44-6.82-11.02-8.77-9.88-2.92-15.92-2.92c-9.76,0-17.33,2.13-22.71,6.39s-8.07,9.83-8.07,16.7c0,4.52.91,8.31,2.72,11.39s4.32,5.46,7.54,7.16c3.22,1.69,7.09,2.95,11.62,3.77l11.77,2.31c5.53,1.03,9.33,2.13,11.39,3.31s3.09,3.36,3.09,6.54c0,1.95-.35,3.52-1.06,4.69-.71,1.18-2.09,2.08-4.15,2.69-2.06.62-5.11.92-9.13.92-4.73,0-8.37-.33-10.94-1-2.56-.67-4.35-1.87-5.36-3.62-1.01-1.74-1.51-3.95-1.51-6.62v-1.39c0-.76-.62-1.39-1.39-1.39h-13.05c-.78,0-1.41.64-1.39,1.42.06,2.12.27,4.31.61,6.08,1.12,5.76,3.72,10.27,7.82,13.51,5.63,4.46,13.93,6.7,24.9,6.7,9.45,0,16.85-1.97,22.18-5.93,5.33-3.95,8-9.47,8-16.55,0-4.21-.86-7.8-2.56-10.77-1.71-2.97-4.2-5.39-7.47-7.23h0Z"></path><path class="cls-2" d="M544.94,37.24c-5.48-3.33-12.05-5-19.69-5s-14.26,1.67-19.84,5c-5.58,3.34-9.91,7.98-12.98,13.93-3.07,5.95-4.6,12.88-4.6,20.78s1.53,14.85,4.6,20.85c3.07,6,7.39,10.67,12.98,14.01,5.58,3.34,12.2,5,19.84,5s14.21-1.67,19.69-5,9.73-8,12.75-14.01c3.02-6,4.53-12.95,4.53-20.85s-1.51-14.83-4.53-20.78-7.27-10.59-12.75-13.93h0ZM541.77,90.95c-3.07,4.05-8.58,6.08-16.52,6.08s-13.48-2.03-16.6-6.08-4.68-10.39-4.68-19.01,1.56-14.95,4.68-19.01c3.12-4.05,8.65-6.08,16.6-6.08s13.45,2.03,16.52,6.08,4.6,10.39,4.6,19.01-1.53,14.96-4.6,19.01Z"></path><path class="cls-2" d="M654.85,36.32h-21.4v-12.16c0-.77-.62-1.39-1.39-1.39h-13.38c-.76,0-1.39.62-1.39,1.39v12.16h-30.51v-4.16c0-3.28.85-5.67,2.57-7.16,1.71-1.49,4.38-2.23,8-2.23h11.33c.77,0,1.39-.62,1.39-1.39v-10.31c0-.76-.62-1.39-1.39-1.39h-8.31c-6.34,0-11.72,1.03-16.15,3.08-4.43,2.05-7.72,5.11-9.88,9.16-2.16,4.05-3.24,9.06-3.24,15.01v71.95c0,.76.62,1.39,1.39,1.39h13.38c.77,0,1.39-.62,1.39-1.39v-58.71h30.06v36.55c0,8.62,2.19,14.7,6.56,18.24,4.38,3.54,10.69,5.31,18.94,5.31,2.61,0,5.13-.15,7.54-.46,1.85-.24,3.43-.47,4.75-.71.66-.12,1.13-.69,1.13-1.36v-11.17c0-.76-.62-1.39-1.39-1.39h-7.67c-5.13,0-8.7-.54-10.71-1.62s-3.02-3.62-3.02-7.62v-35.78h21.4c.76,0,1.39-.62,1.39-1.39v-11.08c0-.76-.62-1.39-1.39-1.39v.02Z"></path><path class="cls-2" d="M264.24,36.24c-4.68-2.67-10.49-4-17.43-4s-12.45,1.26-17.43,3.77c-4.98,2.52-8.85,6-11.62,10.47-2.77,4.46-4.15,9.52-4.15,15.16v.15c0,.76.62,1.39,1.39,1.39h12.92c.76,0,1.38-.62,1.38-1.39v-.92c0-5.13,1.28-8.75,3.85-10.85,2.56-2.1,6.81-3.16,12.75-3.16s10.23,1.03,12.9,3.08c1.66,1.28,2.8,3.27,3.43,5.98.47,3.12.4,6.83-2.3,9.2-4.89,4.28-15.24,3.19-23.39,4.52-5.23.82-9.73,2.13-13.5,3.92-3.77,1.8-6.62,4.16-8.53,7.08s-2.87,6.49-2.87,10.7c0,6.67,2.26,11.75,6.79,15.24s10.06,5.23,16.9,5.23c4.63,0,8.7-.64,12.22-1.92s6.54-2.95,9.05-5c2.51-2.05,4.48-4.26,5.88-6.62h.75v10.62c0,.76.62,1.39,1.39,1.39h12.32c.76,0,1.38-.62,1.38-1.39v-45.1c0-6.36-1.18-11.88-3.55-16.55-2.36-4.67-5.89-8.34-10.56-11h.03ZM262.65,78.87c0,5.13-1.08,9.13-3.24,12-4.06,5.39-9.69,8.43-17.78,8.87-5.19.28-9.81-.55-12.33-2.42-2.19-1.63-3.4-3.92-3.4-7.2s1.02-5.31,2.82-6.77c2.12-1.72,5.2-2.86,9.96-3.65,7.56-1.17,12.78-.39,17.64-2.89,2.89-1.48,4.68-3.28,5.59-6.05h.75v8.1h-.01Z"></path><path class="cls-2" d="M213.22,44.85v-11.24c0-.76-.62-1.39-1.38-1.39h-10.62c-5.43,0-9.88,1.33-13.35,4s-5.96,5.75-7.47,9.23h-.75v-10.77c0-.76-.62-1.39-1.38-1.39h-12.17c-.76,0-1.38.62-1.38,1.39v74.18c0,.76.62,1.39,1.38,1.39h13.53c.76,0,1.38-.62,1.38-1.39v-48.48c0-5.13,1.03-8.77,3.09-10.93,2.06-2.15,5.51-3.23,10.34-3.23h17.42c.76,0,1.38-.62,1.38-1.39l-.02.02Z"></path><path class="cls-2" d="M679.07,44.69c-.26-.36-.61-.62-1.04-.8v-.03c.71-.16,1.28-.47,1.71-.94s.64-1.06.64-1.78c0-.89-.33-1.58-.98-2.09-.65-.5-1.52-.76-2.6-.76h-4.28v9.82h1.85v-3.5h1.36c.47,0,.83.04,1.08.12s.46.23.61.46c.16.23.3.57.44,1.05l.57,1.88h1.96l-.6-1.88c-.23-.68-.47-1.2-.73-1.55h0ZM676.46,42.98h-2.09v-3.06h2.43c.52,0,.93.14,1.23.4.3.27.44.63.44,1.08,0,.49-.18.87-.54,1.15s-.85.42-1.48.42h.01Z"></path><path class="cls-2" d="M684.28,38.48c-.84-1.45-1.99-2.61-3.43-3.46-1.45-.85-3.02-1.28-4.73-1.28s-3.29.43-4.74,1.28-2.6,2.01-3.45,3.46c-.84,1.45-1.27,3.03-1.27,4.74s.42,3.32,1.27,4.78c.84,1.46,1.99,2.62,3.45,3.47,1.45.85,3.03,1.28,4.74,1.28s3.28-.43,4.73-1.28c1.45-.85,2.59-2.01,3.43-3.47.84-1.46,1.27-3.06,1.27-4.78s-.42-3.29-1.27-4.74ZM682.69,47.12c-.69,1.19-1.61,2.14-2.77,2.83-1.16.7-2.43,1.04-3.8,1.04s-2.65-.35-3.81-1.04c-1.17-.7-2.09-1.64-2.78-2.83s-1.03-2.49-1.03-3.9.34-2.68,1.03-3.87c.69-1.18,1.61-2.12,2.78-2.82,1.17-.7,2.44-1.04,3.81-1.04s2.64.35,3.8,1.04c1.16.7,2.08,1.64,2.77,2.82.69,1.18,1.03,2.47,1.03,3.87s-.34,2.71-1.03,3.9Z"></path><rect class="cls-2" x="718.08" y="22.77" width="2" height="87.49"></rect><rect class="cls-2" x="875.03" y="31.06" width="3.17" height="24.9"></rect><path class="cls-2" d="M863.1,65.01c1.57,0,2.93-.29,4.07-.86,1.18-.54,2.07-1.33,2.67-2.35.63-1.03.95-2.22.95-3.58,0-2.02-.7-3.64-2.08-4.84-1.36-1.24-3.21-1.86-5.57-1.86h-8.65c-.94,0-1.66-.2-2.18-.59-.51-.39-.77-.93-.77-1.63s.24-1.16.72-1.5c.48-.36,1.15-.54,1.99-.54h3.89c1.84,0,3.5-.35,4.98-1.04s2.64-1.68,3.49-2.94c.87-1.27,1.31-2.75,1.31-4.44,0-1.43-.34-2.71-.97-3.85.1-.33.23-.6.42-.76.24-.24.64-.36,1.18-.36h1.9v-2.81h-1.4c-.85,0-1.51.24-1.99.72-.48.45-.79,1.12-.91,1.99h-.03c-.79-.93-1.78-1.68-3-2.22-1.48-.69-3.14-1.04-4.98-1.04s-3.5.33-4.98,1c-1.48.66-2.64,1.63-3.49,2.9-.85,1.24-1.27,2.72-1.27,4.44s.44,3.21,1.31,4.48c.9,1.24,2.17,2.14,3.8,2.71v.09h-.86c-1.21.03-2.17.38-2.9,1.04-.72.63-1.09,1.48-1.09,2.53,0,.93.29,1.75.86,2.44.57.67,1.37,1.15,2.4,1.45v.09c-1.36.3-2.43.95-3.21,1.95-.75.97-1.13,2.11-1.13,3.44,0,1.75.65,3.17,1.95,4.26,1.33,1.12,3.23,1.68,5.71,1.68h7.86ZM853.46,43.1c-1.24-.97-1.86-2.37-1.86-4.21,0-1.24.29-2.28.86-3.12.6-.85,1.4-1.48,2.4-1.9s2.1-.64,3.3-.64c1.9,0,3.47.5,4.71,1.5,1.27.96,1.9,2.35,1.9,4.17,0,1.21-.3,2.25-.9,3.12-.57.84-1.36,1.48-2.35,1.9-1,.42-2.11.63-3.35.63-1.87,0-3.44-.48-4.71-1.45h0ZM851.7,61.25c-.79-.72-1.18-1.71-1.18-2.94,0-.78.18-1.5.54-2.13.36-.6.89-1.07,1.58-1.4.69-.36,1.54-.54,2.53-.54h7.79c1.42,0,2.53.38,3.35,1.13.85.72,1.27,1.71,1.27,2.94,0,.82-.2,1.52-.59,2.13-.36.61-.91,1.07-1.63,1.4-.69.33-1.51.5-2.44.5h-7.7c-1.54,0-2.72-.36-3.53-1.09h.01Z"></path><path class="cls-2" d="M785.14,41.88c0-1.81.32-3.37.95-4.66.63-1.3,1.48-2.28,2.53-2.94,1.06-.66,2.22-1,3.49-1,1.72,0,3.08.62,4.07,1.85,1.03,1.21,1.54,3.03,1.54,5.48v15.35h3.17v-14.12c0-1.81.3-3.35.91-4.62.63-1.3,1.46-2.26,2.49-2.9,1.06-.67,2.22-1,3.49-1,1.72,0,3.09.6,4.12,1.81,1.03,1.21,1.54,3.03,1.54,5.48v15.35h3.17v-15.75c0-1.96-.32-3.67-.95-5.12-.63-1.48-1.55-2.61-2.76-3.39-1.18-.78-2.6-1.18-4.25-1.18-2.02,0-3.73.57-5.12,1.72s-2.37,2.67-2.94,4.57h-.09c-.45-1.96-1.33-3.5-2.63-4.62-1.27-1.12-2.88-1.67-4.85-1.67s-3.6.54-4.93,1.63c-1.3,1.06-2.26,2.43-2.9,4.12h-.09v-5.21h-3.12v24.9h3.17v-14.08h0Z"></path><rect class="cls-2" x="874.94" y="22.77" width="3.35" height="3.49"></rect><path class="cls-2" d="M888.46,42.29c0-1.96.36-3.62,1.09-4.98.72-1.36,1.66-2.35,2.81-2.99,1.18-.67,2.44-1,3.8-1,1.84,0,3.32.64,4.44,1.9,1.12,1.24,1.68,3.21,1.68,5.93v14.8h3.17v-15.21c0-2.14-.33-3.98-1-5.52-.63-1.54-1.58-2.7-2.85-3.49-1.24-.82-2.73-1.22-4.48-1.22-1.99,0-3.74.53-5.25,1.58-1.51,1.03-2.62,2.5-3.35,4.44h-.09v-5.48h-3.12v24.9h3.17v-13.67h-.02Z"></path><rect class="cls-2" x="771.62" y="22.77" width="3.35" height="3.49"></rect><rect class="cls-2" x="771.71" y="31.06" width="3.17" height="24.9"></rect><path class="cls-2" d="M925.66,65.01c1.57,0,2.93-.29,4.07-.86,1.18-.54,2.07-1.33,2.67-2.35.64-1.03.95-2.22.95-3.58,0-2.02-.69-3.64-2.08-4.84-1.36-1.24-3.21-1.86-5.57-1.86h-8.65c-.93,0-1.66-.2-2.17-.59s-.77-.93-.77-1.63.24-1.16.72-1.5c.48-.36,1.15-.54,1.99-.54h3.89c1.84,0,3.5-.35,4.98-1.04,1.48-.69,2.64-1.68,3.49-2.94.87-1.27,1.31-2.75,1.31-4.44,0-1.43-.34-2.71-.97-3.85.1-.33.23-.6.42-.76.24-.24.63-.36,1.18-.36h1.9v-2.81h-1.4c-.85,0-1.51.24-1.99.72-.48.45-.78,1.12-.9,1.99h-.03c-.79-.93-1.78-1.68-3-2.22-1.48-.69-3.14-1.04-4.98-1.04s-3.5.33-4.98,1c-1.48.66-2.64,1.63-3.49,2.9-.84,1.24-1.27,2.72-1.27,4.44s.44,3.21,1.31,4.48c.9,1.24,2.17,2.14,3.8,2.71v.09h-.86c-1.21.03-2.17.38-2.9,1.04-.72.63-1.09,1.48-1.09,2.53,0,.93.29,1.75.86,2.44.57.67,1.37,1.15,2.4,1.45v.09c-1.36.3-2.43.95-3.21,1.95-.75.97-1.13,2.11-1.13,3.44,0,1.75.65,3.17,1.95,4.26,1.33,1.12,3.23,1.68,5.71,1.68h7.84ZM916.02,43.1c-1.24-.97-1.86-2.37-1.86-4.21,0-1.24.29-2.28.86-3.12.6-.85,1.4-1.48,2.4-1.9s2.1-.64,3.31-.64c1.9,0,3.47.5,4.71,1.5,1.27.96,1.9,2.35,1.9,4.17,0,1.21-.3,2.25-.9,3.12-.57.84-1.36,1.48-2.35,1.9-1,.42-2.11.63-3.35.63-1.87,0-3.44-.48-4.71-1.45h-.01ZM914.25,61.25c-.79-.72-1.18-1.71-1.18-2.94,0-.78.18-1.5.54-2.13.36-.6.89-1.07,1.58-1.4.69-.36,1.54-.54,2.53-.54h7.79c1.42,0,2.53.38,3.35,1.13.85.72,1.27,1.71,1.27,2.94,0,.82-.2,1.52-.59,2.13-.36.61-.91,1.07-1.63,1.4-.69.33-1.51.5-2.44.5h-7.7c-1.54,0-2.71-.36-3.53-1.09h0Z"></path><path class="cls-2" d="M837.98,40.34c-.7.54-1.78.82-3.26.82h-3.89c-2.81,0-5.06.66-6.74,1.99-1.66,1.3-2.49,3.18-2.49,5.66,0,1.6.36,2.99,1.09,4.17.72,1.15,1.71,2.02,2.94,2.63,1.27.6,2.7.91,4.3.91,2.17,0,4.06-.54,5.66-1.63,1.63-1.12,2.81-2.73,3.53-4.84h.09v2.44c0,1.09.32,1.95.95,2.58.63.6,1.51.9,2.63.9h2.26v-2.81h-1.18c-.57,0-1-.14-1.27-.41-.24-.27-.36-.71-.36-1.31v-12.86c0-1.6-.35-3-1.04-4.21-.69-1.24-1.75-2.19-3.17-2.85-1.39-.66-3.11-1-5.16-1-3.11,0-5.55.75-7.33,2.26s-2.78,3.62-2.99,6.34h3.21c.15-1.87.86-3.32,2.13-4.35,1.3-1.03,2.96-1.54,4.98-1.54,1.81,0,3.29.42,4.44,1.27,1.18.82,1.77,1.95,1.77,3.39,0,1.09-.36,1.9-1.09,2.45h-.01ZM839.07,41.15v3.35c0,2.05-.41,3.77-1.22,5.16-.78,1.39-1.82,2.43-3.12,3.12-1.3.66-2.7,1-4.21,1-1.87,0-3.27-.47-4.21-1.4-.9-.93-1.36-2.13-1.36-3.58s.48-2.6,1.45-3.53c.96-.94,2.47-1.4,4.53-1.4h2.58c1.48,0,2.66-.23,3.53-.68.87-.45,1.52-1.13,1.95-2.04h.09-.01Z"></path><path class="cls-2" d="M790.38,106.46c-.24-.27-.36-.71-.36-1.31v-12.86c0-1.6-.35-3-1.04-4.21-.69-1.24-1.75-2.19-3.17-2.85-1.39-.66-3.11-1-5.16-1-3.11,0-5.55.75-7.33,2.26s-2.78,3.62-2.99,6.34h3.21c.15-1.87.86-3.32,2.13-4.35,1.3-1.03,2.96-1.54,4.98-1.54,1.81,0,3.29.42,4.44,1.27,1.18.82,1.77,1.95,1.77,3.39,0,1.09-.36,1.9-1.09,2.45-.7.54-1.78.82-3.26.82h-3.89c-2.81,0-5.06.66-6.74,1.99-1.66,1.3-2.49,3.18-2.49,5.66,0,1.6.36,2.99,1.09,4.17.72,1.15,1.71,2.02,2.94,2.63,1.27.6,2.7.91,4.3.91,2.17,0,4.06-.54,5.66-1.63,1.63-1.12,2.81-2.73,3.53-4.84h.09v2.44c0,1.09.32,1.95.95,2.58.63.6,1.51.9,2.63.9h2.26v-2.81h-1.18c-.57,0-1-.14-1.27-.41h-.01ZM786.85,98.22c0,2.05-.41,3.77-1.22,5.16-.78,1.39-1.82,2.43-3.12,3.12-1.3.66-2.7,1-4.21,1-1.87,0-3.27-.47-4.21-1.4-.9-.93-1.36-2.13-1.36-3.58s.48-2.6,1.45-3.53c.96-.93,2.47-1.4,4.53-1.4h2.58c1.48,0,2.66-.23,3.53-.68.87-.45,1.52-1.13,1.95-2.04h.09v3.35h-.01Z"></path><path class="cls-2" d="M802.8,88.26c1.33-.87,2.9-1.31,4.71-1.31,1.57,0,2.94.33,4.12,1,1.21.66,2.13,1.55,2.76,2.67.66,1.12,1.04,2.34,1.13,3.67h3.35c-.18-1.9-.74-3.61-1.68-5.12-.91-1.54-2.19-2.75-3.85-3.62-1.66-.88-3.61-1.31-5.84-1.31-2.5,0-4.68.54-6.52,1.63-1.84,1.06-3.24,2.57-4.21,4.53-.96,1.96-1.45,4.24-1.45,6.84s.5,4.88,1.5,6.84c1.03,1.96,2.46,3.49,4.3,4.57,1.84,1.06,3.97,1.59,6.38,1.59,2.17,0,4.07-.42,5.7-1.27,1.63-.88,2.91-2.04,3.85-3.49.97-1.48,1.57-3.08,1.81-4.8h-3.35c-.15,1.09-.56,2.16-1.22,3.21-.66,1.03-1.58,1.89-2.76,2.58-1.14.69-2.49,1.04-4.03,1.04-1.66,0-3.17-.42-4.53-1.27-1.33-.84-2.39-2.04-3.17-3.57-.78-1.57-1.18-3.38-1.18-5.43s.36-3.76,1.09-5.3c.72-1.57,1.75-2.79,3.08-3.67h.01Z"></path><path class="cls-2" d="M950.03,106.46c-.24-.27-.36-.71-.36-1.31v-12.86c0-1.6-.35-3-1.04-4.21-.69-1.24-1.75-2.19-3.17-2.85-1.39-.66-3.11-1-5.16-1-3.11,0-5.55.75-7.33,2.26-1.78,1.51-2.78,3.62-2.99,6.34h3.21c.15-1.87.86-3.32,2.13-4.35,1.3-1.03,2.96-1.54,4.98-1.54,1.81,0,3.29.42,4.44,1.27,1.18.82,1.77,1.95,1.77,3.39,0,1.09-.36,1.9-1.09,2.45-.7.54-1.78.82-3.26.82h-3.89c-2.81,0-5.06.66-6.74,1.99-1.66,1.3-2.49,3.18-2.49,5.66,0,1.6.36,2.99,1.09,4.17.72,1.15,1.71,2.02,2.94,2.63,1.27.6,2.7.91,4.3.91,2.17,0,4.06-.54,5.66-1.63,1.63-1.12,2.81-2.73,3.53-4.84h.09v2.44c0,1.09.32,1.95.95,2.58.63.6,1.51.9,2.63.9h2.26v-2.81h-1.18c-.57,0-1-.14-1.27-.41h0ZM946.5,98.22c0,2.05-.41,3.77-1.22,5.16-.78,1.39-1.82,2.43-3.12,3.12-1.3.66-2.7,1-4.21,1-1.87,0-3.27-.47-4.21-1.4-.9-.93-1.36-2.13-1.36-3.58s.48-2.6,1.45-3.53,2.47-1.4,4.53-1.4h2.58c1.48,0,2.66-.23,3.53-.68s1.52-1.13,1.95-2.04h.09v3.35h-.01Z"></path><path class="cls-2" d="M962.15,106.1c-.51-.51-.77-1.31-.77-2.4v-16.12h8.01v-2.81h-8.01v-6.79h-3.17v6.79h-5.3v2.81h5.3v16.25c0,1.9.48,3.35,1.45,4.35,1,1,2.46,1.49,4.39,1.49h5.57v-2.81h-5.11c-1.06,0-1.84-.26-2.35-.77h0Z"></path><path class="cls-2" d="M989.12,85.68c-1.75-.96-3.76-1.45-6.02-1.45s-4.44.53-6.25,1.58c-1.78,1.06-3.18,2.57-4.21,4.53-1,1.96-1.5,4.25-1.5,6.88s.5,4.88,1.5,6.84c1,1.96,2.4,3.49,4.21,4.57,1.84,1.06,3.95,1.59,6.34,1.59,1.9,0,3.65-.35,5.25-1.04,1.6-.69,2.93-1.66,3.98-2.9,1.06-1.24,1.75-2.66,2.08-4.26h-3.44c-.51,1.66-1.48,2.99-2.9,3.99s-3.08,1.49-4.98,1.49c-1.69,0-3.18-.39-4.48-1.18-1.27-.78-2.26-1.87-2.99-3.26-.72-1.42-1.12-3.05-1.18-4.89h20.19v-2.08c0-2.39-.5-4.47-1.49-6.25-.97-1.81-2.34-3.2-4.12-4.17h.01ZM974.59,95.46c.12-1.6.53-3.03,1.22-4.3.72-1.3,1.72-2.32,2.99-3.08,1.27-.75,2.73-1.13,4.39-1.13s3.11.36,4.35,1.09c1.24.72,2.17,1.73,2.81,3.03.67,1.27,1.01,2.73,1.04,4.39h-16.8Z"></path><path class="cls-2" d="M1019.7,74.32v13.94c0,1.12.03,2.05.09,2.81h-.09c-.72-2.11-1.96-3.79-3.71-5.03-1.72-1.24-3.71-1.86-5.98-1.86-2.02,0-3.93.51-5.71,1.54-1.75,1.03-3.15,2.52-4.21,4.48-1.06,1.96-1.58,4.3-1.58,7.02s.53,5.06,1.58,7.02c1.06,1.96,2.46,3.46,4.21,4.48,1.78,1.03,3.68,1.54,5.71,1.54,2.26,0,4.25-.62,5.98-1.85,1.75-1.24,2.99-2.91,3.71-5.03h.09c-.03.75-.04,1.69-.04,2.81v3.49h3.12v-35.36h-3.17,0ZM1018.57,102.61c-.75,1.57-1.81,2.78-3.17,3.62-1.36.85-2.9,1.27-4.62,1.27s-3.26-.42-4.62-1.27c-1.36-.84-2.43-2.05-3.21-3.62-.75-1.57-1.13-3.36-1.13-5.39s.38-3.82,1.13-5.39c.78-1.57,1.85-2.78,3.21-3.62,1.36-.85,2.9-1.27,4.62-1.27s3.26.42,4.62,1.27,2.41,2.05,3.17,3.62c.78,1.57,1.18,3.37,1.18,5.39s-.39,3.82-1.18,5.39Z"></path><path class="cls-2" d="M920.97,86c-1,.78-1.79,1.98-2.4,3.57h-.09v-4.8h-3.12v24.9h3.17v-14.49c0-2.5.53-4.39,1.58-5.66,1.06-1.3,2.63-1.95,4.71-1.95h2.81v-2.81h-2.26c-1.9,0-3.37.41-4.39,1.22v.02Z"></path><path class="cls-2" d="M829.98,88.26c1.33-.87,2.9-1.31,4.71-1.31,1.57,0,2.94.33,4.12,1,1.21.66,2.13,1.55,2.76,2.67.66,1.12,1.04,2.34,1.13,3.67h3.35c-.18-1.9-.74-3.61-1.68-5.12-.91-1.54-2.19-2.75-3.85-3.62-1.66-.88-3.61-1.31-5.84-1.31-2.5,0-4.68.54-6.52,1.63-1.84,1.06-3.24,2.57-4.21,4.53-.96,1.96-1.45,4.24-1.45,6.84s.5,4.88,1.5,6.84c1.03,1.96,2.46,3.49,4.3,4.57,1.84,1.06,3.97,1.59,6.38,1.59,2.17,0,4.07-.42,5.7-1.27,1.63-.88,2.91-2.04,3.85-3.49.97-1.48,1.57-3.08,1.81-4.8h-3.35c-.15,1.09-.56,2.16-1.22,3.21-.66,1.03-1.58,1.89-2.76,2.58-1.14.69-2.49,1.04-4.03,1.04-1.66,0-3.17-.42-4.53-1.27-1.33-.84-2.39-2.04-3.17-3.57-.79-1.57-1.18-3.38-1.18-5.43s.36-3.76,1.09-5.3c.72-1.57,1.75-2.79,3.08-3.67h.01Z"></path><path class="cls-2" d="M867.67,85.68c-1.75-.96-3.76-1.45-6.02-1.45s-4.44.53-6.25,1.58c-1.78,1.06-3.18,2.57-4.21,4.53-1,1.96-1.5,4.25-1.5,6.88s.5,4.88,1.5,6.84c1,1.96,2.4,3.49,4.21,4.57,1.84,1.06,3.95,1.59,6.34,1.59,1.9,0,3.65-.35,5.25-1.04,1.6-.69,2.93-1.66,3.99-2.9,1.06-1.24,1.75-2.66,2.08-4.26h-3.44c-.51,1.66-1.48,2.99-2.9,3.99-1.42,1-3.08,1.49-4.98,1.49-1.69,0-3.18-.39-4.48-1.18-1.27-.78-2.26-1.87-2.99-3.26-.72-1.42-1.12-3.05-1.18-4.89h20.19v-2.08c0-2.39-.5-4.47-1.49-6.25-.97-1.81-2.34-3.2-4.12-4.17h0ZM853.14,95.46c.12-1.6.53-3.03,1.22-4.3.72-1.3,1.72-2.32,2.99-3.08s2.73-1.13,4.39-1.13,3.11.36,4.35,1.09c1.24.72,2.17,1.73,2.81,3.03.67,1.27,1.01,2.73,1.04,4.39h-16.8,0Z"></path><rect class="cls-2" x="878.35" y="74.32" width="3.17" height="35.36"></rect><path class="cls-2" d="M904.68,85.68c-1.75-.96-3.76-1.45-6.02-1.45s-4.44.53-6.25,1.58c-1.78,1.06-3.18,2.57-4.21,4.53-1,1.96-1.5,4.25-1.5,6.88s.5,4.88,1.5,6.84c1,1.96,2.4,3.49,4.21,4.57,1.84,1.06,3.95,1.59,6.34,1.59,1.9,0,3.65-.35,5.25-1.04,1.6-.69,2.93-1.66,3.98-2.9,1.06-1.24,1.75-2.66,2.08-4.26h-3.44c-.51,1.66-1.48,2.99-2.9,3.99s-3.08,1.49-4.98,1.49c-1.69,0-3.18-.39-4.48-1.18-1.27-.78-2.26-1.87-2.99-3.26-.72-1.42-1.12-3.05-1.18-4.89h20.19v-2.08c0-2.39-.5-4.47-1.49-6.25-.97-1.81-2.34-3.2-4.12-4.17h.01ZM890.15,95.46c.12-1.6.53-3.03,1.22-4.3.72-1.3,1.72-2.32,2.99-3.08,1.27-.75,2.73-1.13,4.39-1.13s3.11.36,4.35,1.09c1.24.72,2.17,1.73,2.81,3.03.67,1.27,1.01,2.73,1.04,4.39h-16.8Z"></path></g></svg>